<svg xmlns="http://www.w3.org/2000/svg" viewBox="0 0 233 194"><defs><style>.cls-1{fill:#233906;}</style></defs><title>Ресурс 1</title><g id="Слой_2" data-name="Слой 2"><g id="Слой_1-2" data-name="Слой 1"><path class="cls-1" d="M155,0h69a9,9,0,0,1,9,9V185a9,9,0,0,1-9,9H130a9,9,0,0,1-9-9h0a9,9,0,0,1,9-9h74a9,9,0,0,0,9-9V28a9,9,0,0,0-9-9H130a9,9,0,0,1-9-9V9a9,9,0,0,1,9-9Z"/><path class="cls-1" d="M8,104.76c23.41-.46,71.94,0,91,.15A7.87,7.87,0,0,0,107,97v-.15A7.88,7.88,0,0,0,99.12,89H7.88A7.88,7.88,0,0,0,0,96.88H0A7.88,7.88,0,0,0,8,104.76Z"/><path class="cls-1" d="M104,70.08l14.56,23.06a7.23,7.23,0,0,1,0,7.72L104,123.92A7.22,7.22,0,0,0,110.11,135h0a7.22,7.22,0,0,0,6-3.25L136.39,101a7.24,7.24,0,0,0,0-7.94L116.14,62.25a7.22,7.22,0,0,0-6-3.25h0A7.22,7.22,0,0,0,104,70.08Z"/></g></g></svg>